<svg xmlns="http://www.w3.org/2000/svg" width="31" height="30" viewBox="0 0 31 30">
    <path fill="#A98F46" fill-rule="nonzero" d="M.327 15c0-8.284 6.716-15 15-15 8.285 0 15 6.716 15 15 0 8.284-6.715 15-15 15-8.284 0-15-6.716-15-15zm1.25 0c0 7.594 6.156 13.75 13.75 13.75s13.75-6.156 13.75-13.75-6.156-13.75-13.75-13.75S1.577 7.406 1.577 15zm22.57-3.411s.18 1.38.18 2.76v1.295c0 1.381-.18 2.762-.18 2.762s-.176 1.175-.715 1.693c-.685.68-1.452.683-1.804.723-2.518.173-6.3.178-6.3.178s-4.68-.04-6.12-.172c-.401-.07-1.3-.05-1.986-.73-.54-.517-.715-1.692-.715-1.692s-.18-1.38-.18-2.762V14.35c0-1.38.18-2.761.18-2.761s.176-1.176.715-1.694c.685-.68 1.452-.683 1.804-.722C11.545 9 15.323 9 15.323 9h.008s3.779 0 6.297.173c.352.04 1.12.042 1.804.722.54.518.715 1.694.715 1.694zm-10.896 6.744l5.538-3.155L13.25 12l.001 6.333z"/>
</svg>
