<svg xmlns="http://www.w3.org/2000/svg" width="31" height="30" viewBox="0 0 31 30">
    <path fill="#A98F46" fill-rule="nonzero" d="M.218 15c0-8.284 6.716-15 15-15 8.284 0 15 6.716 15 15 0 8.284-6.716 15-15 15-8.284 0-15-6.716-15-15zm1.25 0c0 7.594 6.156 13.75 13.75 13.75s13.75-6.156 13.75-13.75-6.156-13.75-13.75-13.75S1.468 7.406 1.468 15zm13.534-2.925c-.098-1.401.758-2.681 2.113-3.178.499-.176 1.344-.198 1.897-.044.216.067.628.287.921.486l.531.364.585-.188c.325-.099.759-.264.954-.375.184-.1.347-.154.347-.121 0 .187-.401.827-.737 1.18-.455.497-.325.541.596.21.553-.187.564-.187.455.022-.065.11-.4.497-.758.85-.607.607-.64.673-.64 1.18 0 .784-.368 2.417-.737 3.31-.683 1.678-2.146 3.41-3.61 4.282-2.058 1.224-4.8 1.533-7.109.816-.77-.243-2.092-.86-2.092-.97 0-.034.401-.078.889-.09a6.064 6.064 0 0 0 2.905-.816l.585-.353-.672-.231c-.954-.331-1.81-1.093-2.027-1.81-.065-.232-.043-.243.564-.243l.628-.01-.53-.254c-.63-.32-1.204-.861-1.486-1.413-.206-.397-.466-1.401-.39-1.478.022-.033.25.033.51.121.747.276.845.21.411-.254-.812-.838-1.062-2.085-.671-3.266l.184-.53.715.718c1.463 1.445 3.187 2.306 5.16 2.56l.541.066-.032-.54z"/>
</svg>
