<svg xmlns="http://www.w3.org/2000/svg" width="30" height="30" viewBox="0 0 30 30">
    <path fill="#A98F46" fill-rule="nonzero" d="M0 15C0 6.716 6.716 0 15 0c8.284 0 15 6.716 15 15 0 8.284-6.716 15-15 15-8.284 0-15-6.716-15-15zm1.25 0c0 7.594 6.156 13.75 13.75 13.75S28.75 22.594 28.75 15 22.594 1.25 15 1.25 1.25 7.406 1.25 15zm14.987 8.75h-3.325v-8.126H11.25v-2.8h1.662v-1.681c0-2.285.938-3.643 3.603-3.643h2.22v2.8h-1.388c-1.037 0-1.106.392-1.106 1.122l-.004 1.402h2.513l-.294 2.8h-2.219v8.126z"/>
</svg>
