<svg xmlns="http://www.w3.org/2000/svg" width="31" height="30" viewBox="0 0 31 30">
    <path fill="#A98F46" fill-rule="evenodd" d="M.11 15c0-8.284 6.715-15 15-15 8.283 0 15 6.716 15 15 0 8.284-6.717 15-15 15-8.285 0-15-6.716-15-15zm1.25 0c0 7.594 6.155 13.75 13.75 13.75 7.593 0 13.75-6.156 13.75-13.75S22.702 1.25 15.11 1.25C7.514 1.25 1.36 7.406 1.36 15zm13.634-7.5h-.002c2.006 0 2.256.009 3.044.045.786.036 1.323.16 1.794.343.486.188.897.44 1.307.852.411.41.663.822.853 1.308.181.47.306 1.006.343 1.793.035.788.044 1.04.044 3.045 0 2.006-.009 2.258-.044 3.045-.037.786-.162 1.323-.343 1.793-.19.486-.442.898-.853 1.308-.41.411-.821.664-1.307.853-.47.183-1.007.307-1.793.343-.788.036-1.038.045-3.044.045-2.005 0-2.257-.009-3.044-.045-.786-.036-1.323-.16-1.793-.343a3.616 3.616 0 0 1-1.308-.853 3.62 3.62 0 0 1-.851-1.308c-.183-.47-.307-1.006-.343-1.793-.036-.788-.045-1.039-.045-3.045 0-2.006.01-2.258.045-3.045.035-.786.16-1.323.343-1.793.189-.486.441-.898.852-1.308.41-.411.822-.664 1.308-.852.47-.183 1.006-.307 1.792-.343.788-.036 1.04-.045 3.045-.045zm-.684 1.138v-.002c-1.42.002-1.693.011-2.397.043-.743.034-1.146.158-1.415.263-.355.139-.61.304-.876.57a2.363 2.363 0 0 0-.57.878c-.105.268-.23.672-.263 1.415-.037.804-.044 1.044-.044 3.08 0 2.037.007 2.278.044 3.082.034.743.158 1.147.262 1.415.139.356.304.61.57.877.268.267.522.432.877.57.27.104.672.229 1.415.263.804.036 1.045.044 3.08.044s2.277-.008 3.08-.044c.743-.034 1.147-.158 1.415-.263.356-.138.61-.303.876-.57.267-.267.432-.52.57-.876.105-.269.229-.672.263-1.415.036-.804.044-1.046.044-3.08 0-2.036-.008-2.277-.044-3.08-.034-.744-.158-1.148-.263-1.416a2.366 2.366 0 0 0-.57-.877 2.357 2.357 0 0 0-.876-.57c-.269-.105-.672-.229-1.415-.263-.804-.036-1.045-.044-3.08-.044h-.683zm.686 2.271a3.977 3.977 0 1 1-.001 7.955 3.977 3.977 0 0 1 0-7.955zm0 1.136a2.84 2.84 0 1 0 0 5.682 2.84 2.84 0 0 0 0-5.682zm3.977-2.272a1.137 1.137 0 1 1 0 2.272 1.137 1.137 0 0 1 0-2.272z"/>
</svg>
