<svg xmlns="http://www.w3.org/2000/svg" width="30" height="30" viewBox="0 0 30 30">
    <path fill="#A98F46" fill-rule="nonzero" d="M-.06 15c0-8.284 6.715-15 15-15 8.284 0 15 6.716 15 15 0 8.284-6.716 15-15 15-8.285 0-15-6.716-15-15zm1.25 0c0 7.594 6.155 13.75 13.75 13.75 7.593 0 13.75-6.156 13.75-13.75S22.532 1.25 14.94 1.25C7.344 1.25 1.19 7.406 1.19 15zm11.479-.714h4.938c.045.25.082.5.082.828 0 2.857-2.002 4.886-5.02 4.886-2.891 0-5.23-2.236-5.23-5s2.339-5 5.23-5c1.412 0 2.592.493 3.504 1.307l-1.42 1.307c-.388-.357-1.068-.771-2.084-.771-1.786 0-3.242 1.414-3.242 3.157s1.456 3.157 3.242 3.157c2.07 0 2.846-1.421 2.966-2.157h-2.966v-1.714zm10.02.714v1.25h-1.25v1.25h-1.25v-1.25h-1.25V15h1.25v-1.25h1.25V15h1.25z"/>
</svg>
